{"title":"Dumb.and.Dumber.1994.BRRip.H264.AAC.5.1ch.Gopo","uid":5268690,"size":1949308983,"categoryP":"video","categoryS":"hd___movies","magnet":"?xt=urn:btih:7b12f9b76877d597051f653e1537ad41edce8abf&amp;dn=Dumb.and.Dumber.1994.BRRip.H264.AAC.5.1ch.Gopo&amp;tr=udp%3A%2F%2Ftracker.openbittorrent.com%3A80&amp;tr=udp%3A%2F%2Fopen.demonii.com%3A1337&amp;tr=udp%3A%2F%2Ftracker.coppersurfer.tk%3A6969&amp;tr=udp%3A%2F%2Fexodus.desync.com%3A6969","seeders":1,"leechers":0,"uploader":"kriss_kringle","files":-1,"time":1262975421,"description":"General\n      Complete name : Dumb.and.Dumber.1994.BRRip.H264.AAC.5.1ch.Gopo.mp4\n      Format : MPEG-4\n      Format profile : Base Media\n      Codec ID : isom\n      File size : 1.80 GiB\n      Duration : 1h 52mn\n      Overall bit rate : 2 287 Kbps\n      Encoded date : UTC 2010-01-07 07:12:35\n      Tagged date : UTC 2010-01-07 07:12:35\n      Writing application : Yamb 2.1.0.0 [http://yamb.unite-video.com]\n   Video #2\n      ID : 2\n      Format : AVC\n      Format/Info : Advanced Video Codec\n      Format profile : &lt;a class=&quot;__cf_email__&quot; href=&quot;/cdn-cgi/l/email-protection&quot; data-cfemail=&quot;abe3c2ccc3ebe79f859a&quot;&gt;[email&amp;#160;protected]&lt;/a&gt;&lt;script cf-hash='f9e31' type=&quot;text/javascript&quot;&gt;\n/* &lt;![CDATA[ */!function(){try{var t=&quot;currentScript&quot;in document?document.currentScript:function(){for(var t=document.getElementsByTagName(&quot;script&quot;),e=t.length;e--;)if(t[e].getAttribute(&quot;cf-hash&quot;))return t[e]}();if(t&amp;&amp;t.previousSibling){var e,r,n,i,c=t.previousSibling,a=c.getAttribute(&quot;data-cfemail&quot;);if(a){for(e=&quot;&quot;,r=parseInt(a.substr(0,2),16),n=2;a.length-n;n+=2)i=parseInt(a.substr(n,2),16)^r,e+=String.fromCharCode(i);e=document.createTextNode(e),c.parentNode.replaceChild(e,c)}}}catch(u){}}();/* ]]&gt; */&lt;/script&gt;\n      Format settings, CABAC : Yes\n      Format settings, ReFrames : 5 frames\n      Codec ID : avc1\n      Codec ID/Info : Advanced Video Coding\n      Duration : 1h 52mn\n      Bit rate mode : Variable\n      Bit rate : 1 952 Kbps\n      Maximum bit rate : 7 157 Kbps\n      Width : 1 280 pixels\n      Height : 720 pixels\n      Display aspect ratio : 16:9\n      Frame rate mode : Constant\n      Frame rate : 23.976 fps\n      Resolution : 24 bits\n      Colorimetry : 4:2:0\n      Scan type : Progressive\n      Bits/(Pixel*Frame) : 0.088\n      Stream size : 1.54 GiB (85%)\n      Writing library : x264 core 79 r1360 528c100\n      Encoding settings : cabac=1 / ref=5 / deblock=1:0:0 / analyse=0x3:0x113 / me=umh / subme=8 / psy=1 / psy_rd=1.0:0.0 / mixed_ref=1 / me_range=16 / chroma_me=1 / trellis=2 / 8x8dct=1 / cqm=0 / deadzone=21,11 / chroma_qp_offset=-2 / threads=1 / nr=0 / decimate=1 / mbaff=0 / constrained_intra=0 / bframes=3 / b_pyramid=0 / b_adapt=2 / b_bias=0 / direct=3 / wpredb=1 / wpredp=2 / keyint=250 / keyint_min=25 / scenecut=40 / rc_lookahead=30 / rc=2pass / mbtree=1 / bitrate=1952 / ratetol=1.0 / qcomp=0.50 / qpmin=10 / qpmax=51 / qpstep=4 / cplxblur=20.0 / qblur=0.5 / vbv_maxrate=24000 / vbv_bufsize=24000 / ip_ratio=1.10 / aq=1:1.00\n      Encoded date : UTC 2010-01-04 07:46:09\n      Tagged date : UTC 2010-01-07 07:15:03\n   Audio #1\n      ID : 1\n      Format : AAC\n      Format/Info : Advanced Audio Codec\n      Format version : Version 4\n      Format profile : LC\n      Format settings, SBR : No\n      Codec ID : 40\n      Duration : 1h 52mn\n      Bit rate mode : Variable\n      Bit rate : 332 Kbps\n      Maximum bit rate : 415 Kbps\n      Channel(s) : 6 channels\n      Channel positions : Front: L C R, Rear: L R, LFE\n      Sampling rate : 48.0 KHz\n      Resolution : 16 bits\n      Stream size : 268 MiB (15%)\n      Encoded date : UTC 2010-01-07 07:12:35\n      Tagged date : UTC 2010-01-07 07:15:03\n\tSample : YES\n\tSubtitle : English,Romanian\n\nPLOT\n\nHarry and Lloyd are two brainless losers who try to return a suitcase full of money to its pretty owner. After a journey full of accidents they arrive in snowy Aspen, Colorado and try to find her. But will they succeed?\nDirector: Peter Farrelly\nCASTING \n     \n      Jim Carrey\t... \tLloyd Christmas\n\tJeff Daniels\t... \tHarry Dunne\n\tLauren Holly\t... \tMary Swanson\n\tMike Starr\t... \tJoe Mentalino\n\tKaren Duffy\t... \tJ.P. Shay\n\tCharles Rocket\t... \tNicholas Andre\n\tVictoria Rowell\t... \tAthletic Beauty\n\tJoe Baker\t... \tBarnard\n\tHank Brandt\t... \tKarl Swanson\n\tTeri Garr\t... \tHelen Swanson\n\tBrady Bluhm\t... \tBilly\n\tCam Neely\t... \tSea Bass\n\tFelton Perry\t... \tDetective Dale\n\tBrad Lockerman\t... \tBobby\n\tRob Moran\t... \tBartender\n\nSOURCE: dumb.and.dumber.1994.1080p.bluray.x264-cinefile.mkv\n\nNotes: For best performance I suggest you to use KMPlayer(find it with google) for playback\nI haven't tested the movies on a PS3 or Xbox or other devices than PC because I don't own one of them but feel free to test them if you have the oportunity.\n","torrent":{"xt":"urn:btih:7b12f9b76877d597051f653e1537ad41edce8abf","amp;dn":"Dumb.and.Dumber.1994.BRRip.H264.AAC.5.1ch.Gopo","amp;tr":["udp%3A%2F%2Ftracker.openbittorrent.com%3A80","udp%3A%2F%2Fopen.demonii.com%3A1337","udp%3A%2F%2Ftracker.coppersurfer.tk%3A6969","udp%3A%2F%2Fexodus.desync.com%3A6969"],"infoHash":"7b12f9b76877d597051f653e1537ad41edce8abf","infoHashBuffer":{"type":"Buffer","data":[123,18,249,183,104,119,213,151,5,31,101,62,21,55,173,65,237,206,138,191]},"announce":[],"urlList":[]}}